# File generated by ImageToStl.com - Free Image and 3D model conversion tools

o obj1
v -101.5 274.5 23
v -99.5 276.5 23
v -101.5 276.5 25
v -122.5 274.5 23
v -122.5 276.5 25
v -124.5 276.5 23
v -101.5 299.5 23
v -101.5 297.5 25
v -99.5 297.5 23
v -101.5 276.5 0
v -99.5 276.5 2
v -101.5 274.5 2
v -124.5 297.5 23
v -122.5 297.5 25
v -122.5 299.5 23
v -122.5 274.5 2
v -124.5 276.5 2
v -122.5 276.5 0
v -101.5 299.5 2
v -99.5 297.5 2
v -101.5 297.5 0
v -124.5 297.5 2
v -122.5 299.5 2
v -122.5 297.5 0
v -99.5 301.5 23
v -101.5 301.5 25
v -122.5 301.5 25
v -124.5 301.5 23
v -101.5 324.5 23
v -101.5 322.5 25
v -99.5 322.5 23
v -101.5 301.5 0
v -99.5 301.5 2
v -124.5 322.5 23
v -122.5 322.5 25
v -122.5 324.5 23
v -124.5 301.5 2
v -122.5 301.5 0
v -101.5 324.5 2
v -99.5 322.5 2
v -101.5 322.5 0
v -124.5 322.5 2
v -122.5 324.5 2
v -122.5 322.5 0
v -76.5 274.5 23
v -74.5 276.5 23
v -76.5 276.5 25
v -97.5 274.5 23
v -97.5 276.5 25
v -76.5 299.5 23
v -76.5 297.5 25
v -74.5 297.5 23
v -76.5 276.5 0
v -74.5 276.5 2
v -76.5 274.5 2
v -97.5 297.5 25
v -97.5 299.5 23
v -97.5 274.5 2
v -97.5 276.5 0
v -76.5 299.5 2
v -74.5 297.5 2
v -76.5 297.5 0
v -97.5 299.5 2
v -97.5 297.5 0
v -76.5 249.5 23
v -74.5 251.5 23
v -76.5 251.5 25
v -97.5 249.5 23
v -97.5 251.5 25
v -99.5 251.5 23
v -76.5 272.5 25
v -74.5 272.5 23
v -76.5 251.5 0
v -74.5 251.5 2
v -76.5 249.5 2
v -99.5 272.5 23
v -97.5 272.5 25
v -97.5 249.5 2
v -99.5 251.5 2
v -97.5 251.5 0
v -74.5 272.5 2
v -76.5 272.5 0
v -99.5 272.5 2
v -97.5 272.5 0
vn 0.57735 -0.57735 0.57735
vn -0.57735 -0.57735 0.57735
vn 0.57735 0.57735 0.57735
vn 0.70711 0 0.70711
vn 0.57735 -0.57735 -0.57735
vn 0.70711 -0.70711 0
vn -0.57735 0.57735 0.57735
vn -0 0.70711 0.70711
vn -0.57735 -0.57735 -0.57735
vn 0.57735 0.57735 -0.57735
vn 0.70711 0 -0.70711
vn -0.57735 0.57735 -0.57735
vn 0 0.70711 -0.70711
vn -0.70711 -0 -0.70711
vn -0.70711 0.70711 0
vn 0.70711 0.70711 -0
vn 0 -0.70711 -0.70711
vn -0.70711 -0.70711 0
vn -0.70711 0 0.70711
vn 0 -0.70711 0.70711
vn 0 0 1
vn 0 -1 0
vn 0 0 -1
vn -1 0 0
vn 1 -0 0
vn 0 1 0
f 1//1 2//1 3//1
f 4//2 5//2 6//2
f 7//3 8//3 9//3
f 9//4 8//4 2//4
f 2//4 8//4 3//4
f 10//5 11//5 12//5
f 11//6 2//6 12//6
f 12//6 2//6 1//6
f 13//7 14//7 15//7
f 14//8 8//8 15//8
f 15//8 8//8 7//8
f 16//9 17//9 18//9
f 19//10 20//10 21//10
f 11//11 10//11 20//11
f 20//11 10//11 21//11
f 22//12 23//12 24//12
f 21//13 24//13 19//13
f 19//13 24//13 23//13
f 22//14 24//14 17//14
f 17//14 24//14 18//14
f 22//15 13//15 23//15
f 23//15 13//15 15//15
f 19//16 7//16 20//16
f 20//16 7//16 9//16
f 18//17 10//17 16//17
f 16//17 10//17 12//17
f 16//18 4//18 17//18
f 17//18 4//18 6//18
f 6//19 5//19 13//19
f 13//19 5//19 14//19
f 3//20 5//20 1//20
f 1//20 5//20 4//20
f 8//21 14//21 3//21
f 3//21 14//21 5//21
f 12//22 1//22 16//22
f 16//22 1//22 4//22
f 10//23 18//23 21//23
f 21//23 18//23 24//23
f 17//24 6//24 22//24
f 22//24 6//24 13//24
f 7//1 25//1 26//1
f 15//2 27//2 28//2
f 29//3 30//3 31//3
f 31//4 30//4 25//4
f 25//4 30//4 26//4
f 32//5 33//5 19//5
f 33//6 25//6 19//6
f 19//6 25//6 7//6
f 34//7 35//7 36//7
f 35//8 30//8 36//8
f 36//8 30//8 29//8
f 23//9 37//9 38//9
f 39//10 40//10 41//10
f 33//11 32//11 40//11
f 40//11 32//11 41//11
f 42//12 43//12 44//12
f 41//13 44//13 39//13
f 39//13 44//13 43//13
f 42//14 44//14 37//14
f 37//14 44//14 38//14
f 42//15 34//15 43//15
f 43//15 34//15 36//15
f 39//16 29//16 40//16
f 40//16 29//16 31//16
f 38//17 32//17 23//17
f 23//17 32//17 19//17
f 23//18 15//18 37//18
f 37//18 15//18 28//18
f 28//19 27//19 34//19
f 34//19 27//19 35//19
f 26//20 27//20 7//20
f 7//20 27//20 15//20
f 30//21 35//21 26//21
f 26//21 35//21 27//21
f 25//25 33//25 31//25
f 31//25 33//25 40//25
f 32//23 38//23 41//23
f 41//23 38//23 44//23
f 43//26 36//26 39//26
f 39//26 36//26 29//26
f 37//24 28//24 42//24
f 42//24 28//24 34//24
f 45//1 46//1 47//1
f 48//2 49//2 2//2
f 50//3 51//3 52//3
f 52//4 51//4 46//4
f 46//4 51//4 47//4
f 53//5 54//5 55//5
f 54//6 46//6 55//6
f 55//6 46//6 45//6
f 9//7 56//7 57//7
f 56//8 51//8 57//8
f 57//8 51//8 50//8
f 58//9 11//9 59//9
f 60//10 61//10 62//10
f 54//11 53//11 61//11
f 61//11 53//11 62//11
f 20//12 63//12 64//12
f 62//13 64//13 60//13
f 60//13 64//13 63//13
f 20//14 64//14 11//14
f 11//14 64//14 59//14
f 20//15 9//15 63//15
f 63//15 9//15 57//15
f 60//16 50//16 61//16
f 61//16 50//16 52//16
f 59//17 53//17 58//17
f 58//17 53//17 55//17
f 58//18 48//18 11//18
f 11//18 48//18 2//18
f 2//19 49//19 9//19
f 9//19 49//19 56//19
f 47//20 49//20 45//20
f 45//20 49//20 48//20
f 51//21 56//21 47//21
f 47//21 56//21 49//21
f 46//25 54//25 52//25
f 52//25 54//25 61//25
f 53//23 59//23 62//23
f 62//23 59//23 64//23
f 63//26 57//26 60//26
f 60//26 57//26 50//26
f 65//1 66//1 67//1
f 68//2 69//2 70//2
f 45//3 71//3 72//3
f 72//4 71//4 66//4
f 66//4 71//4 67//4
f 73//5 74//5 75//5
f 74//6 66//6 75//6
f 75//6 66//6 65//6
f 76//7 77//7 48//7
f 77//8 71//8 48//8
f 48//8 71//8 45//8
f 78//9 79//9 80//9
f 55//10 81//10 82//10
f 74//11 73//11 81//11
f 81//11 73//11 82//11
f 83//12 58//12 84//12
f 82//13 84//13 55//13
f 55//13 84//13 58//13
f 83//14 84//14 79//14
f 79//14 84//14 80//14
f 83//15 76//15 58//15
f 58//15 76//15 48//15
f 55//16 45//16 81//16
f 81//16 45//16 72//16
f 80//17 73//17 78//17
f 78//17 73//17 75//17
f 78//18 68//18 79//18
f 79//18 68//18 70//18
f 70//19 69//19 76//19
f 76//19 69//19 77//19
f 67//20 69//20 65//20
f 65//20 69//20 68//20
f 71//21 77//21 67//21
f 67//21 77//21 69//21
f 66//25 74//25 72//25
f 72//25 74//25 81//25
f 75//22 65//22 78//22
f 78//22 65//22 68//22
f 73//23 80//23 82//23
f 82//23 80//23 84//23
f 79//24 70//24 83//24
f 83//24 70//24 76//24
# Vertices: 84, normals: 26, texture coordinates: 0, faces: 164

