# File generated by ImageToStl.com - Free Image and 3D model conversion tools

o obj1
v -101.5 200.5 23
v -99.5 202.5 23
v -101.5 202.5 25
v -122.5 200.5 23
v -122.5 202.5 25
v -124.5 202.5 23
v -101.5 225.5 23
v -101.5 223.5 25
v -99.5 223.5 23
v -101.5 202.5 0
v -99.5 202.5 2
v -101.5 200.5 2
v -124.5 223.5 23
v -122.5 223.5 25
v -122.5 225.5 23
v -122.5 200.5 2
v -124.5 202.5 2
v -122.5 202.5 0
v -101.5 225.5 2
v -99.5 223.5 2
v -101.5 223.5 0
v -124.5 223.5 2
v -122.5 225.5 2
v -122.5 223.5 0
v -101.5 150.5 23
v -99.5 152.5 23
v -101.5 152.5 25
v -122.5 150.5 23
v -122.5 152.5 25
v -124.5 152.5 23
v -101.5 175.5 23
v -101.5 173.5 25
v -99.5 173.5 23
v -101.5 152.5 0
v -99.5 152.5 2
v -101.5 150.5 2
v -124.5 173.5 23
v -122.5 173.5 25
v -122.5 175.5 23
v -122.5 150.5 2
v -124.5 152.5 2
v -122.5 152.5 0
v -101.5 175.5 2
v -99.5 173.5 2
v -101.5 173.5 0
v -124.5 173.5 2
v -122.5 175.5 2
v -122.5 173.5 0
v -99.5 177.5 23
v -101.5 177.5 25
v -122.5 177.5 25
v -124.5 177.5 23
v -101.5 198.5 25
v -99.5 198.5 23
v -101.5 177.5 0
v -99.5 177.5 2
v -124.5 198.5 23
v -122.5 198.5 25
v -124.5 177.5 2
v -122.5 177.5 0
v -99.5 198.5 2
v -101.5 198.5 0
v -124.5 198.5 2
v -122.5 198.5 0
v -76.5 175.5 23
v -74.5 177.5 23
v -76.5 177.5 25
v -97.5 175.5 23
v -97.5 177.5 25
v -76.5 200.5 23
v -76.5 198.5 25
v -74.5 198.5 23
v -76.5 177.5 0
v -74.5 177.5 2
v -76.5 175.5 2
v -97.5 198.5 25
v -97.5 200.5 23
v -97.5 175.5 2
v -97.5 177.5 0
v -76.5 200.5 2
v -74.5 198.5 2
v -76.5 198.5 0
v -97.5 200.5 2
v -97.5 198.5 0
vn 0.57735 -0.57735 0.57735
vn -0.57735 -0.57735 0.57735
vn 0.57735 0.57735 0.57735
vn 0.70711 0 0.70711
vn 0.57735 -0.57735 -0.57735
vn 0.70711 -0.70711 0
vn -0.57735 0.57735 0.57735
vn -0 0.70711 0.70711
vn -0.57735 -0.57735 -0.57735
vn 0.57735 0.57735 -0.57735
vn 0.70711 0 -0.70711
vn -0.57735 0.57735 -0.57735
vn 0 0.70711 -0.70711
vn -0.70711 -0 -0.70711
vn -0.70711 0.70711 0
vn 0.70711 0.70711 -0
vn 0 -0.70711 -0.70711
vn -0.70711 -0.70711 0
vn -0.70711 0 0.70711
vn 0 -0.70711 0.70711
vn 0 0 1
vn 1 -0 0
vn 0 0 -1
vn 0 1 0
vn -1 0 0
vn 0 -1 0
f 1//1 2//1 3//1
f 4//2 5//2 6//2
f 7//3 8//3 9//3
f 9//4 8//4 2//4
f 2//4 8//4 3//4
f 10//5 11//5 12//5
f 11//6 2//6 12//6
f 12//6 2//6 1//6
f 13//7 14//7 15//7
f 14//8 8//8 15//8
f 15//8 8//8 7//8
f 16//9 17//9 18//9
f 19//10 20//10 21//10
f 11//11 10//11 20//11
f 20//11 10//11 21//11
f 22//12 23//12 24//12
f 21//13 24//13 19//13
f 19//13 24//13 23//13
f 22//14 24//14 17//14
f 17//14 24//14 18//14
f 22//15 13//15 23//15
f 23//15 13//15 15//15
f 19//16 7//16 20//16
f 20//16 7//16 9//16
f 18//17 10//17 16//17
f 16//17 10//17 12//17
f 16//18 4//18 17//18
f 17//18 4//18 6//18
f 6//19 5//19 13//19
f 13//19 5//19 14//19
f 3//20 5//20 1//20
f 1//20 5//20 4//20
f 8//21 14//21 3//21
f 3//21 14//21 5//21
f 2//22 11//22 9//22
f 9//22 11//22 20//22
f 10//23 18//23 21//23
f 21//23 18//23 24//23
f 23//24 15//24 19//24
f 19//24 15//24 7//24
f 17//25 6//25 22//25
f 22//25 6//25 13//25
f 25//1 26//1 27//1
f 28//2 29//2 30//2
f 31//3 32//3 33//3
f 33//4 32//4 26//4
f 26//4 32//4 27//4
f 34//5 35//5 36//5
f 35//6 26//6 36//6
f 36//6 26//6 25//6
f 37//7 38//7 39//7
f 38//8 32//8 39//8
f 39//8 32//8 31//8
f 40//9 41//9 42//9
f 43//10 44//10 45//10
f 35//11 34//11 44//11
f 44//11 34//11 45//11
f 46//12 47//12 48//12
f 45//13 48//13 43//13
f 43//13 48//13 47//13
f 46//14 48//14 41//14
f 41//14 48//14 42//14
f 46//15 37//15 47//15
f 47//15 37//15 39//15
f 43//16 31//16 44//16
f 44//16 31//16 33//16
f 42//17 34//17 40//17
f 40//17 34//17 36//17
f 40//18 28//18 41//18
f 41//18 28//18 30//18
f 30//19 29//19 37//19
f 37//19 29//19 38//19
f 27//20 29//20 25//20
f 25//20 29//20 28//20
f 32//21 38//21 27//21
f 27//21 38//21 29//21
f 26//22 35//22 33//22
f 33//22 35//22 44//22
f 36//26 25//26 40//26
f 40//26 25//26 28//26
f 34//23 42//23 45//23
f 45//23 42//23 48//23
f 41//25 30//25 46//25
f 46//25 30//25 37//25
f 31//1 49//1 50//1
f 39//2 51//2 52//2
f 1//3 53//3 54//3
f 54//4 53//4 49//4
f 49//4 53//4 50//4
f 55//5 56//5 43//5
f 56//6 49//6 43//6
f 43//6 49//6 31//6
f 57//7 58//7 4//7
f 58//8 53//8 4//8
f 4//8 53//8 1//8
f 47//9 59//9 60//9
f 12//10 61//10 62//10
f 56//11 55//11 61//11
f 61//11 55//11 62//11
f 63//12 16//12 64//12
f 62//13 64//13 12//13
f 12//13 64//13 16//13
f 63//14 64//14 59//14
f 59//14 64//14 60//14
f 63//15 57//15 16//15
f 16//15 57//15 4//15
f 12//16 1//16 61//16
f 61//16 1//16 54//16
f 60//17 55//17 47//17
f 47//17 55//17 43//17
f 47//18 39//18 59//18
f 59//18 39//18 52//18
f 52//19 51//19 57//19
f 57//19 51//19 58//19
f 50//20 51//20 31//20
f 31//20 51//20 39//20
f 53//21 58//21 50//21
f 50//21 58//21 51//21
f 55//23 60//23 62//23
f 62//23 60//23 64//23
f 59//25 52//25 63//25
f 63//25 52//25 57//25
f 65//1 66//1 67//1
f 68//2 69//2 49//2
f 70//3 71//3 72//3
f 72//4 71//4 66//4
f 66//4 71//4 67//4
f 73//5 74//5 75//5
f 74//6 66//6 75//6
f 75//6 66//6 65//6
f 54//7 76//7 77//7
f 76//8 71//8 77//8
f 77//8 71//8 70//8
f 78//9 56//9 79//9
f 80//10 81//10 82//10
f 74//11 73//11 81//11
f 81//11 73//11 82//11
f 61//12 83//12 84//12
f 82//13 84//13 80//13
f 80//13 84//13 83//13
f 61//14 84//14 56//14
f 56//14 84//14 79//14
f 61//15 54//15 83//15
f 83//15 54//15 77//15
f 80//16 70//16 81//16
f 81//16 70//16 72//16
f 79//17 73//17 78//17
f 78//17 73//17 75//17
f 78//18 68//18 56//18
f 56//18 68//18 49//18
f 49//19 69//19 54//19
f 54//19 69//19 76//19
f 67//20 69//20 65//20
f 65//20 69//20 68//20
f 71//21 76//21 67//21
f 67//21 76//21 69//21
f 66//22 74//22 72//22
f 72//22 74//22 81//22
f 75//26 65//26 78//26
f 78//26 65//26 68//26
f 73//23 79//23 82//23
f 82//23 79//23 84//23
f 83//24 77//24 80//24
f 80//24 77//24 70//24
# Vertices: 84, normals: 26, texture coordinates: 0, faces: 164

