# File generated by ImageToStl.com - Free Image and 3D model conversion tools

o obj1
v -201.5 150.5 23
v -199.5 152.5 23
v -201.5 152.5 25
v -222.5 150.5 23
v -222.5 152.5 25
v -224.5 152.5 23
v -201.5 175.5 23
v -201.5 173.5 25
v -199.5 173.5 23
v -201.5 152.5 0
v -199.5 152.5 2
v -201.5 150.5 2
v -224.5 173.5 23
v -222.5 173.5 25
v -222.5 175.5 23
v -222.5 150.5 2
v -224.5 152.5 2
v -222.5 152.5 0
v -201.5 175.5 2
v -199.5 173.5 2
v -201.5 173.5 0
v -224.5 173.5 2
v -222.5 175.5 2
v -222.5 173.5 0
v -201.5 125.5 23
v -199.5 127.5 23
v -201.5 127.5 25
v -222.5 125.5 23
v -222.5 127.5 25
v -224.5 127.5 23
v -201.5 148.5 25
v -199.5 148.5 23
v -201.5 127.5 0
v -199.5 127.5 2
v -201.5 125.5 2
v -224.5 148.5 23
v -222.5 148.5 25
v -222.5 125.5 2
v -224.5 127.5 2
v -222.5 127.5 0
v -199.5 148.5 2
v -201.5 148.5 0
v -224.5 148.5 2
v -222.5 148.5 0
v -199.5 177.5 23
v -201.5 177.5 25
v -222.5 177.5 25
v -224.5 177.5 23
v -201.5 200.5 23
v -201.5 198.5 25
v -199.5 198.5 23
v -201.5 177.5 0
v -199.5 177.5 2
v -224.5 198.5 23
v -222.5 198.5 25
v -222.5 200.5 23
v -224.5 177.5 2
v -222.5 177.5 0
v -201.5 200.5 2
v -199.5 198.5 2
v -201.5 198.5 0
v -224.5 198.5 2
v -222.5 200.5 2
v -222.5 198.5 0
v -226.5 175.5 23
v -226.5 177.5 25
v -247.5 175.5 23
v -247.5 177.5 25
v -249.5 177.5 23
v -226.5 200.5 23
v -226.5 198.5 25
v -226.5 177.5 0
v -226.5 175.5 2
v -249.5 198.5 23
v -247.5 198.5 25
v -247.5 200.5 23
v -247.5 175.5 2
v -249.5 177.5 2
v -247.5 177.5 0
v -226.5 200.5 2
v -226.5 198.5 0
v -249.5 198.5 2
v -247.5 200.5 2
v -247.5 198.5 0
vn 0.57735 -0.57735 0.57735
vn -0.57735 -0.57735 0.57735
vn 0.57735 0.57735 0.57735
vn 0.70711 0 0.70711
vn 0.57735 -0.57735 -0.57735
vn 0.70711 -0.70711 0
vn -0.57735 0.57735 0.57735
vn -0 0.70711 0.70711
vn -0.57735 -0.57735 -0.57735
vn 0.57735 0.57735 -0.57735
vn 0.70711 0 -0.70711
vn -0.57735 0.57735 -0.57735
vn 0 0.70711 -0.70711
vn -0.70711 -0 -0.70711
vn -0.70711 0.70711 0
vn 0.70711 0.70711 -0
vn 0 -0.70711 -0.70711
vn -0.70711 -0.70711 0
vn -0.70711 0 0.70711
vn 0 -0.70711 0.70711
vn 0 0 1
vn 1 -0 0
vn 0 0 -1
vn -1 0 0
vn 0 -1 0
vn 0 1 0
f 1//1 2//1 3//1
f 4//2 5//2 6//2
f 7//3 8//3 9//3
f 9//4 8//4 2//4
f 2//4 8//4 3//4
f 10//5 11//5 12//5
f 11//6 2//6 12//6
f 12//6 2//6 1//6
f 13//7 14//7 15//7
f 14//8 8//8 15//8
f 15//8 8//8 7//8
f 16//9 17//9 18//9
f 19//10 20//10 21//10
f 11//11 10//11 20//11
f 20//11 10//11 21//11
f 22//12 23//12 24//12
f 21//13 24//13 19//13
f 19//13 24//13 23//13
f 22//14 24//14 17//14
f 17//14 24//14 18//14
f 22//15 13//15 23//15
f 23//15 13//15 15//15
f 19//16 7//16 20//16
f 20//16 7//16 9//16
f 18//17 10//17 16//17
f 16//17 10//17 12//17
f 16//18 4//18 17//18
f 17//18 4//18 6//18
f 6//19 5//19 13//19
f 13//19 5//19 14//19
f 3//20 5//20 1//20
f 1//20 5//20 4//20
f 8//21 14//21 3//21
f 3//21 14//21 5//21
f 2//22 11//22 9//22
f 9//22 11//22 20//22
f 10//23 18//23 21//23
f 21//23 18//23 24//23
f 17//24 6//24 22//24
f 22//24 6//24 13//24
f 25//1 26//1 27//1
f 28//2 29//2 30//2
f 1//3 31//3 32//3
f 32//4 31//4 26//4
f 26//4 31//4 27//4
f 33//5 34//5 35//5
f 34//6 26//6 35//6
f 35//6 26//6 25//6
f 36//7 37//7 4//7
f 37//8 31//8 4//8
f 4//8 31//8 1//8
f 38//9 39//9 40//9
f 12//10 41//10 42//10
f 34//11 33//11 41//11
f 41//11 33//11 42//11
f 43//12 16//12 44//12
f 42//13 44//13 12//13
f 12//13 44//13 16//13
f 43//14 44//14 39//14
f 39//14 44//14 40//14
f 43//15 36//15 16//15
f 16//15 36//15 4//15
f 12//16 1//16 41//16
f 41//16 1//16 32//16
f 40//17 33//17 38//17
f 38//17 33//17 35//17
f 38//18 28//18 39//18
f 39//18 28//18 30//18
f 30//19 29//19 36//19
f 36//19 29//19 37//19
f 27//20 29//20 25//20
f 25//20 29//20 28//20
f 31//21 37//21 27//21
f 27//21 37//21 29//21
f 26//22 34//22 32//22
f 32//22 34//22 41//22
f 35//25 25//25 38//25
f 38//25 25//25 28//25
f 33//23 40//23 42//23
f 42//23 40//23 44//23
f 39//24 30//24 43//24
f 43//24 30//24 36//24
f 7//1 45//1 46//1
f 15//2 47//2 48//2
f 49//3 50//3 51//3
f 51//4 50//4 45//4
f 45//4 50//4 46//4
f 52//5 53//5 19//5
f 53//6 45//6 19//6
f 19//6 45//6 7//6
f 54//7 55//7 56//7
f 55//8 50//8 56//8
f 56//8 50//8 49//8
f 23//9 57//9 58//9
f 59//10 60//10 61//10
f 53//11 52//11 60//11
f 60//11 52//11 61//11
f 62//12 63//12 64//12
f 61//13 64//13 59//13
f 59//13 64//13 63//13
f 62//14 64//14 57//14
f 57//14 64//14 58//14
f 62//15 54//15 63//15
f 63//15 54//15 56//15
f 59//16 49//16 60//16
f 60//16 49//16 51//16
f 58//17 52//17 23//17
f 23//17 52//17 19//17
f 23//18 15//18 57//18
f 57//18 15//18 48//18
f 48//19 47//19 54//19
f 54//19 47//19 55//19
f 46//20 47//20 7//20
f 7//20 47//20 15//20
f 50//21 55//21 46//21
f 46//21 55//21 47//21
f 45//22 53//22 51//22
f 51//22 53//22 60//22
f 52//23 58//23 61//23
f 61//23 58//23 64//23
f 63//26 56//26 59//26
f 59//26 56//26 49//26
f 65//1 48//1 66//1
f 67//2 68//2 69//2
f 70//3 71//3 54//3
f 54//4 71//4 48//4
f 48//4 71//4 66//4
f 72//5 57//5 73//5
f 57//6 48//6 73//6
f 73//6 48//6 65//6
f 74//7 75//7 76//7
f 75//8 71//8 76//8
f 76//8 71//8 70//8
f 77//9 78//9 79//9
f 80//10 62//10 81//10
f 57//11 72//11 62//11
f 62//11 72//11 81//11
f 82//12 83//12 84//12
f 81//13 84//13 80//13
f 80//13 84//13 83//13
f 82//14 84//14 78//14
f 78//14 84//14 79//14
f 82//15 74//15 83//15
f 83//15 74//15 76//15
f 80//16 70//16 62//16
f 62//16 70//16 54//16
f 79//17 72//17 77//17
f 77//17 72//17 73//17
f 77//18 67//18 78//18
f 78//18 67//18 69//18
f 69//19 68//19 74//19
f 74//19 68//19 75//19
f 66//20 68//20 65//20
f 65//20 68//20 67//20
f 71//21 75//21 66//21
f 66//21 75//21 68//21
f 73//25 65//25 77//25
f 77//25 65//25 67//25
f 72//23 79//23 81//23
f 81//23 79//23 84//23
f 83//26 76//26 80//26
f 80//26 76//26 70//26
f 78//24 69//24 82//24
f 82//24 69//24 74//24
# Vertices: 84, normals: 26, texture coordinates: 0, faces: 164

